<?xml version="1.0" encoding="UTF-8"?>
<svg id="Layer_1" data-name="Layer 1" xmlns="http://www.w3.org/2000/svg" viewBox="0 0 896.75 161.31">
  <defs>
    <style>
      .cls-1 {
        fill: #f55942;
      }

      .cls-2 {
        fill: #fff;
      }

      .cls-3 {
        fill: #f75940;
      }
    </style>
  </defs>
  <rect class="cls-3" x="0" y="0" width="153.31" height="153.31" rx="22.4" ry="22.4"/>
  <g>
    <path class="cls-2" d="M286.5,101.89c0,4.3-.81,8.34-2.43,12.14-1.62,3.79-3.84,7.1-6.67,9.93-2.83,2.83-6.14,5.05-9.93,6.67-3.79,1.62-7.84,2.43-12.14,2.43-3.87,0-7.57-.68-11.12-2.03-3.55-1.35-6.75-3.33-9.6-5.94-2.85,2.61-6.06,4.59-9.64,5.94-3.58,1.35-7.29,2.03-11.16,2.03-4.3,0-8.35-.81-12.14-2.43-3.79-1.62-7.1-3.84-9.93-6.67-2.83-2.83-5.05-6.13-6.67-9.93-1.62-3.79-2.43-7.84-2.43-12.14V27.7h20.8v74.2c0,1.45.27,2.81.8,4.09.53,1.28,1.27,2.39,2.21,3.33.94.94,2.04,1.68,3.3,2.21,1.26.53,2.61.8,4.06.8s2.8-.26,4.06-.8c1.26-.53,2.35-1.27,3.3-2.21.94-.94,1.68-2.05,2.21-3.33.53-1.28.8-2.64.8-4.09V27.7h20.8v74.2c0,1.45.26,2.81.8,4.09.53,1.28,1.27,2.39,2.21,3.33.94.94,2.04,1.68,3.3,2.21,1.26.53,2.61.8,4.06.8s2.8-.26,4.06-.8c1.26-.53,2.35-1.27,3.3-2.21.94-.94,1.69-2.05,2.25-3.33.55-1.28.83-2.64.83-4.09V27.7h20.72v74.2Z"/>
    <path class="cls-2" d="M376.93,92.11c0,5.8-1.04,11.2-3.12,16.19-2.08,5-4.9,9.32-8.48,12.97-3.58,3.65-7.77,6.52-12.57,8.62-4.81,2.1-9.96,3.15-15.47,3.15s-10.59-1.05-15.4-3.15c-4.81-2.1-9.01-4.97-12.61-8.62-3.6-3.65-6.44-7.97-8.51-12.97-2.08-5-3.12-10.4-3.12-16.19s1.04-11.35,3.12-16.38c2.08-5.02,4.91-9.36,8.51-13.01,3.6-3.65,7.8-6.51,12.61-8.59,4.81-2.08,9.94-3.12,15.4-3.12s10.66.98,15.47,2.93c4.81,1.96,9,4.73,12.57,8.33,3.57,3.6,6.4,7.92,8.48,12.97,2.08,5.05,3.12,10.66,3.12,16.85ZM357,92.11c0-3.19-.52-6.07-1.56-8.66-1.04-2.58-2.45-4.81-4.24-6.67-1.79-1.86-3.88-3.28-6.27-4.28-2.39-.99-4.94-1.49-7.64-1.49s-5.25.5-7.64,1.49c-2.39.99-4.47,2.42-6.23,4.28-1.76,1.86-3.15,4.08-4.17,6.67-1.01,2.58-1.52,5.47-1.52,8.66,0,3,.51,5.77,1.52,8.33,1.01,2.56,2.4,4.78,4.17,6.67,1.76,1.88,3.84,3.37,6.23,4.46,2.39,1.09,4.94,1.63,7.64,1.63s5.25-.51,7.64-1.52c2.39-1.01,4.48-2.44,6.27-4.28,1.79-1.83,3.2-4.06,4.24-6.67,1.04-2.61,1.56-5.48,1.56-8.62Z"/>
    <path class="cls-2" d="M407.65,131.6h-19.78V54h4.78l6.52,7.54c3.19-2.9,6.8-5.13,10.83-6.7,4.03-1.57,8.25-2.35,12.64-2.35,4.73,0,9.2.91,13.4,2.72s7.87,4.3,11.01,7.46c3.14,3.16,5.62,6.86,7.43,11.09,1.81,4.23,2.72,8.73,2.72,13.51v44.34h-19.78v-44.34c0-2.03-.39-3.95-1.16-5.76-.77-1.81-1.84-3.39-3.19-4.75-1.35-1.35-2.92-2.42-4.71-3.19-1.79-.77-3.7-1.16-5.72-1.16s-4.03.39-5.87,1.16c-1.84.77-3.43,1.84-4.78,3.19-1.35,1.35-2.42,2.93-3.19,4.75-.77,1.81-1.16,3.73-1.16,5.76v44.34Z"/>
    <path class="cls-2" d="M546.26,131.6h-4.78l-7.68-10.65c-1.88,1.69-3.88,3.27-5.98,4.75-2.1,1.47-4.31,2.75-6.63,3.84-2.32,1.09-4.7,1.95-7.14,2.57-2.44.63-4.92.94-7.43.94-5.46,0-10.59-1.03-15.4-3.08-4.81-2.05-9.01-4.9-12.61-8.55-3.6-3.65-6.44-7.97-8.51-12.97-2.08-5-3.12-10.45-3.12-16.34s1.04-11.28,3.12-16.3c2.08-5.02,4.91-9.37,8.51-13.04,3.6-3.67,7.8-6.54,12.61-8.62,4.81-2.08,9.94-3.12,15.4-3.12,1.74,0,3.54.15,5.4.43,1.86.29,3.67.76,5.43,1.41,1.76.65,3.42,1.51,4.96,2.57,1.55,1.06,2.85,2.37,3.91,3.91V23.13h19.93v108.47ZM526.34,92.11c0-2.7-.52-5.33-1.56-7.86-1.04-2.54-2.45-4.78-4.24-6.74-1.79-1.96-3.88-3.53-6.27-4.71-2.39-1.18-4.94-1.78-7.64-1.78s-5.25.48-7.64,1.45c-2.39.97-4.47,2.35-6.23,4.17-1.76,1.81-3.15,4.02-4.17,6.63-1.01,2.61-1.52,5.56-1.52,8.84,0,2.85.51,5.56,1.52,8.12,1.01,2.56,2.4,4.81,4.17,6.74,1.76,1.93,3.84,3.45,6.23,4.56,2.39,1.11,4.94,1.67,7.64,1.67s5.25-.59,7.64-1.78c2.39-1.18,4.48-2.75,6.27-4.71,1.79-1.96,3.2-4.2,4.24-6.74,1.04-2.54,1.56-5.16,1.56-7.86Z"/>
    <path class="cls-2" d="M592.2,112.62c.77.24,1.54.4,2.32.47.77.07,1.55.11,2.32.11,1.93,0,3.79-.27,5.58-.8,1.79-.53,3.46-1.29,5.04-2.28,1.57-.99,2.97-2.2,4.2-3.62,1.23-1.42,2.23-3.01,3.01-4.75l14.49,14.56c-1.84,2.61-3.95,4.95-6.34,7.03-2.39,2.08-4.98,3.84-7.75,5.29-2.78,1.45-5.7,2.55-8.77,3.3-3.07.75-6.22,1.12-9.46,1.12-5.46,0-10.59-1.01-15.4-3.04-4.81-2.03-9.01-4.86-12.61-8.48-3.6-3.62-6.44-7.93-8.51-12.93-2.08-5-3.12-10.49-3.12-16.48s1.04-11.74,3.12-16.81c2.08-5.07,4.92-9.4,8.51-12.97,3.6-3.57,7.8-6.35,12.61-8.33,4.81-1.98,9.94-2.97,15.4-2.97,3.24,0,6.4.39,9.49,1.16,3.09.77,6.03,1.88,8.8,3.33,2.78,1.45,5.37,3.22,7.79,5.33,2.42,2.1,4.54,4.46,6.38,7.06l-37.1,44.71ZM602.35,71.82c-.92-.34-1.82-.56-2.72-.65-.89-.1-1.82-.15-2.79-.15-2.71,0-5.25.5-7.64,1.49-2.39.99-4.47,2.4-6.23,4.24-1.76,1.84-3.15,4.05-4.17,6.63-1.01,2.58-1.52,5.5-1.52,8.73,0,.72.04,1.55.11,2.46.07.92.19,1.85.36,2.79.17.94.37,1.85.62,2.72.24.87.55,1.64.94,2.32l23.04-30.58Z"/>
    <path class="cls-2" d="M659.01,131.6h-19.78V54h4.78l6.52,9.2c3.19-2.9,6.81-5.13,10.87-6.7,4.06-1.57,8.26-2.35,12.61-2.35h17.46v19.71h-17.46c-2.08,0-4.03.39-5.87,1.16-1.84.77-3.43,1.84-4.78,3.19-1.35,1.35-2.42,2.95-3.19,4.78-.77,1.84-1.16,3.79-1.16,5.87v42.75Z"/>
    <path class="cls-2" d="M720.6,131.6h-19.93V23.13h19.93v108.47Z"/>
    <path class="cls-2" d="M810.67,92.11c0,5.8-1.04,11.2-3.12,16.19-2.08,5-4.9,9.32-8.48,12.97-3.58,3.65-7.77,6.52-12.57,8.62-4.81,2.1-9.96,3.15-15.47,3.15s-10.59-1.05-15.4-3.15c-4.81-2.1-9.01-4.97-12.61-8.62-3.6-3.65-6.44-7.97-8.51-12.97-2.08-5-3.12-10.4-3.12-16.19s1.04-11.35,3.12-16.38c2.08-5.02,4.92-9.36,8.51-13.01,3.6-3.65,7.8-6.51,12.61-8.59,4.81-2.08,9.94-3.12,15.4-3.12s10.66.98,15.47,2.93,9,4.73,12.57,8.33c3.57,3.6,6.4,7.92,8.48,12.97,2.08,5.05,3.12,10.66,3.12,16.85ZM790.74,92.11c0-3.19-.52-6.07-1.56-8.66-1.04-2.58-2.45-4.81-4.24-6.67-1.79-1.86-3.88-3.28-6.27-4.28-2.39-.99-4.94-1.49-7.64-1.49s-5.25.5-7.64,1.49c-2.39.99-4.47,2.42-6.23,4.28-1.76,1.86-3.15,4.08-4.17,6.67s-1.52,5.47-1.52,8.66c0,3,.51,5.77,1.52,8.33,1.01,2.56,2.4,4.78,4.17,6.67,1.76,1.88,3.84,3.37,6.23,4.46,2.39,1.09,4.94,1.63,7.64,1.63s5.25-.51,7.64-1.52c2.39-1.01,4.48-2.44,6.27-4.28,1.79-1.83,3.2-4.06,4.24-6.67,1.04-2.61,1.56-5.48,1.56-8.62Z"/>
    <path class="cls-2" d="M896.75,121.82c0,5.46-1.04,10.58-3.12,15.36-2.08,4.78-4.92,8.96-8.51,12.54-3.6,3.57-7.8,6.4-12.61,8.48-4.81,2.08-9.94,3.12-15.4,3.12l-9.93-.14v-19.78l9.78.14c3.09,0,5.72-.4,7.9-1.2s4.01-1.88,5.51-3.26c1.5-1.38,2.69-2.96,3.59-4.75s1.61-3.67,2.14-5.65c-.77,1.26-1.88,2.28-3.33,3.08s-3.06,1.45-4.82,1.96c-1.76.51-3.6.86-5.51,1.05-1.91.19-3.68.29-5.33.29-5.46,0-10.59-.94-15.4-2.83s-9.01-4.58-12.61-8.08c-3.6-3.5-6.44-7.79-8.51-12.86-2.08-5.07-3.12-10.8-3.12-17.17,0-5.84,1.04-11.28,3.12-16.3,2.08-5.02,4.92-9.37,8.51-13.04,3.6-3.67,7.8-6.54,12.61-8.62,4.81-2.08,9.94-3.12,15.4-3.12,2.51,0,5,.31,7.46.94,2.46.63,4.85,1.5,7.17,2.61,2.32,1.11,4.53,2.42,6.63,3.91,2.1,1.5,4.07,3.12,5.91,4.85l7.68-9.2h4.78v67.68ZM876.82,92.11c0-2.7-.52-5.33-1.56-7.86-1.04-2.54-2.45-4.78-4.24-6.74s-3.88-3.53-6.27-4.71c-2.39-1.18-4.94-1.78-7.64-1.78s-5.25.46-7.64,1.38c-2.39.92-4.47,2.27-6.23,4.06-1.76,1.79-3.15,4-4.17,6.63s-1.52,5.64-1.52,9.02.51,6.15,1.52,8.73c1.01,2.58,2.4,4.79,4.17,6.63,1.76,1.84,3.84,3.25,6.23,4.24,2.39.99,4.94,1.49,7.64,1.49s5.25-.59,7.64-1.78c2.39-1.18,4.48-2.75,6.27-4.71s3.2-4.2,4.24-6.74c1.04-2.54,1.56-5.16,1.56-7.86Z"/>
  </g>
  <g>
    <path class="cls-2" d="M60.61,40.91c-1.23,1.12-3.88-.7-5.41-1.05-14.87-3.43-27.54,9.91-23.1,24.56,2.34,7.72,9.83,12.99,17.78,13.41h19.79s0-21.88,0-21.88c1.56-19.42,20.08-33.29,39.28-29.02,20.92,4.65,31.74,28.39,21.26,47.27-3.32,5.99-8.29,10.31-14.27,13.57,6.14,7.92,7.17,18.57,2.62,27.53-6.65,13.1-23.02,18.07-35.91,10.78-2.45-1.39-4.46-3.27-6.56-5.12-3.65,3.88-8.4,6.78-13.65,7.92-3.3.72-8.31.7-11.6-.09-18.14-4.35-26.01-26.26-14.45-41.03-4.83-2.64-9.12-6-12.31-10.5C5.88,51.55,31.43,17.71,61.21,27.99c1.25.43,4.73,1.66,4.86,3.07-1.33,3.49-3.61,6.6-5.45,9.85ZM82.66,77.82c11.4-.82,25.2,3.15,33.71-6.59,10.59-12.13,2.4-31.41-13.71-31.94-10.97-.36-19.37,7.97-20.01,18.74-.39,6.46.31,13.3,0,19.79ZM69.68,90.8h-13.92c-3.56,0-8.05,3.07-9.83,6.08-6.15,10.43,3.79,22.57,15.22,18.78,4.2-1.39,8.52-6.61,8.52-11.15v-13.71ZM96.58,90.8c-4.4-.42-9.45.32-13.92,0v13.92c0,6.69,7.5,12.15,13.9,11.59,15.47-1.36,15.44-24.03.03-25.51Z"/>
    <path class="cls-1" d="M82.66,77.82c.3-6.5-.39-13.34,0-19.79.64-10.77,9.04-19.1,20.01-18.74,16.11.53,24.3,19.81,13.71,31.94-8.51,9.74-22.31,5.77-33.71,6.59Z"/>
    <path class="cls-1" d="M96.58,90.8c15.42,1.48,15.44,24.15-.03,25.51-6.4.56-13.9-4.9-13.9-11.59v-13.92c4.47.32,9.52-.42,13.92,0Z"/>
    <path class="cls-1" d="M69.68,90.8v13.71c0,4.54-4.33,9.76-8.52,11.15-11.43,3.79-21.37-8.36-15.22-18.78,1.78-3.01,6.27-6.08,9.83-6.08h13.92Z"/>
  </g>
</svg>