<?xml version="1.0" encoding="UTF-8"?>
<svg id="Layer_1" data-name="Layer 1" xmlns="http://www.w3.org/2000/svg" viewBox="0 0 153.31 153.31">
  <defs>
    <style>
      .cls-1 {
        fill: #f55942;
      }

      .cls-2 {
        fill: #fff;
      }

      .cls-3 {
        fill: #f75940;
      }
    </style>
  </defs>
  <rect class="cls-3" x="0" y="0" width="153.31" height="153.31" rx="22.4" ry="22.4"/>
  <g>
    <path class="cls-2" d="M61.14,39.79c-1.23,1.12-3.88-.7-5.41-1.05-14.87-3.43-27.54,9.91-23.1,24.56,2.34,7.72,9.83,12.99,17.78,13.41h19.79s0-21.88,0-21.88c1.56-19.42,20.08-33.29,39.28-29.02,20.92,4.65,31.74,28.39,21.26,47.27-3.32,5.99-8.29,10.31-14.27,13.57,6.14,7.92,7.17,18.57,2.62,27.53-6.65,13.1-23.02,18.07-35.91,10.78-2.45-1.39-4.46-3.27-6.56-5.12-3.65,3.88-8.4,6.78-13.65,7.92-3.3.72-8.31.7-11.6-.09-18.14-4.35-26.01-26.26-14.45-41.03-4.83-2.64-9.12-6-12.31-10.5C6.41,50.43,31.96,16.6,61.74,26.87c1.25.43,4.73,1.66,4.86,3.07-1.33,3.49-3.61,6.6-5.45,9.85ZM83.19,76.7c11.4-.82,25.2,3.15,33.71-6.59,10.59-12.13,2.4-31.41-13.71-31.94-10.97-.36-19.37,7.97-20.01,18.74-.39,6.46.31,13.3,0,19.79ZM70.21,89.68h-13.92c-3.56,0-8.05,3.07-9.83,6.08-6.15,10.43,3.79,22.57,15.22,18.78,4.2-1.39,8.52-6.61,8.52-11.15v-13.71ZM97.11,89.68c-4.4-.42-9.45.32-13.92,0v13.92c0,6.69,7.5,12.15,13.9,11.59,15.47-1.36,15.44-24.03.03-25.51Z"/>
    <path class="cls-1" d="M83.19,76.7c.3-6.5-.39-13.34,0-19.79.64-10.77,9.04-19.1,20.01-18.74,16.11.53,24.3,19.81,13.71,31.94-8.51,9.74-22.31,5.77-33.71,6.59Z"/>
    <path class="cls-1" d="M97.11,89.68c15.42,1.48,15.44,24.15-.03,25.51-6.4.56-13.9-4.9-13.9-11.59v-13.92c4.47.32,9.52-.42,13.92,0Z"/>
    <path class="cls-1" d="M70.21,89.68v13.71c0,4.54-4.33,9.76-8.52,11.15-11.43,3.79-21.37-8.36-15.22-18.78,1.78-3.01,6.27-6.08,9.83-6.08h13.92Z"/>
  </g>
</svg>